<?xml version="1.0" encoding="UTF-8"?>
<!DOCTYPE svg PUBLIC "-//W3C//DTD SVG 1.1//EN" "http://www.w3.org/Graphics/SVG/1.1/DTD/svg11.dtd">
<!-- Creator: CorelDRAW -->
<svg xmlns="http://www.w3.org/2000/svg" xml:space="preserve" width="96.1208mm" height="84.7174mm" version="1.1" style="shape-rendering:geometricPrecision; text-rendering:geometricPrecision; image-rendering:optimizeQuality; fill-rule:evenodd; clip-rule:evenodd"
viewBox="0 0 1542.94 1359.9"
 xmlns:xlink="http://www.w3.org/1999/xlink"
 xmlns:xodm="http://www.corel.com/coreldraw/odm/2003">
 <defs>
  <style type="text/css">
   <![CDATA[
    .str3 {stroke:#3A5367;stroke-width:20.87;stroke-miterlimit:22.9256}
    .str2 {stroke:#332C2B;stroke-width:3.21;stroke-miterlimit:22.9256}
    .str1 {stroke:#587178;stroke-width:3.21;stroke-miterlimit:22.9256}
    .str0 {stroke:#B36E51;stroke-width:16.05;stroke-linecap:round;stroke-miterlimit:22.9256}
    .fil1 {fill:none}
    .fil4 {fill:#FEFEFE}
    .fil3 {fill:#3A5367}
    .fil8 {fill:#45576F}
    .fil2 {fill:#698289}
    .fil5 {fill:#AABF87}
    .fil0 {fill:#F0E5DA}
    .fil7 {fill:#3A5367;fill-rule:nonzero}
    .fil6 {fill:#587178;fill-rule:nonzero}
   ]]>
  </style>
   <clipPath id="id0">
    <path d="M531 860.84c49.74,0 90.06,50.34 90.06,112.44 0,62.1 -40.32,112.44 -90.06,112.44 -49.74,0 -90.06,-50.34 -90.06,-112.44 0,-62.1 40.32,-112.44 90.06,-112.44z"/>
   </clipPath>
   <clipPath id="id1">
    <path d="M993.17 860.84c49.74,0 90.06,50.34 90.06,112.44 0,62.1 -40.32,112.44 -90.06,112.44 -49.74,0 -90.06,-50.34 -90.06,-112.44 0,-62.1 40.32,-112.44 90.06,-112.44z"/>
   </clipPath>
 </defs>
 <g id="圖層_x0020_1">
  <metadata id="CorelCorpID_0Corel-Layer"/>
  <path class="fil0" d="M766.59 402.26c188.67,0 355.92,60.45 459.6,153.57 32.59,60.02 34.77,576.04 3.1,627.11 -103.43,94.71 -272.14,156.38 -462.7,156.38 -190.46,0 -359.1,-61.6 -462.54,-156.23 -30.87,-65.21 -32.25,-551.74 3.51,-627.78 103.72,-92.82 270.7,-153.05 459.03,-153.05z"/>
  <line class="fil1 str0" x1="797.06" y1="1161.31" x2="742.6" y2= "1160.96" />
  <path class="fil2 str1" d="M1259.49 862.74c-70.4,-22.47 -176.36,-115.79 -214.37,-218.57 -3.63,49.25 -19.09,144.16 -119.83,197.56 30.49,-142.98 -1.7,-321.36 -34.15,-365.16 0.23,36.35 -12.29,255.84 -95.51,347.35 -105.39,-77.45 -143.34,-250.97 -154.41,-331.95 -128.82,38.14 -288.68,278.19 -325.98,428.28 -101.17,-168.07 -106.45,-490.27 12.25,-648.61 92.08,-122.83 286.94,-187.68 445.36,-187.68 210.26,0 347.33,57.28 429.03,162.13 208.09,267.06 56.72,620.26 57.6,616.64z"/>
  <path class="fil2 str1" d="M477.96 177.72c9.73,-42.17 128.91,-184.56 188.06,-175.72 80.27,12 134.3,119.96 174.62,174.39l-57.2 7.87c0,0 -70.33,-143.68 -122.07,-142.6 -51.74,1.08 -116.73,107.43 -127.72,138l-55.69 -1.93z"/>
  <path class="fil2 str1" d="M1075.46 177.72c-9.73,-42.17 -128.91,-184.56 -188.06,-175.72 -80.27,12 -134.3,119.96 -174.62,174.39l57.2 7.87c0,0 70.33,-143.68 122.07,-142.6 51.74,1.08 116.73,107.43 127.72,138l55.69 -1.93z"/>
  <g id="_2275921100864">
   <path class="fil2" d="M931.51 510.31c-41.73,325.78 -190.04,426.63 -238.27,428.88 199.94,-261.06 162.64,-506.58 162.64,-506.58l75.62 77.7z"/>
   <path class="fil1 str1" d="M855.88 432.62c0,0 37.29,245.52 -162.64,506.58 48.23,-2.26 196.53,-103.1 238.27,-428.88"/>
  </g>
  <g id="_2275921100240">
   <path class="fil2" d="M731.43 441.33c5.86,139.4 39.97,347.74 153.53,444.21 -34.64,0.61 -165.82,-34.02 -205.11,-130.06 3.34,57.13 20.47,83.4 40.64,123.02 -252.1,-133.32 -157.56,-518.74 -157.56,-518.74l168.51 81.57z"/>
   <path class="fil1 str1" d="M562.92 359.76c0,0 -94.54,385.42 157.56,518.74 -20.17,-39.61 -37.3,-65.89 -40.64,-123.02 39.29,96.04 170.47,130.66 205.11,130.06 -113.55,-96.47 -147.67,-304.82 -153.53,-444.21"/>
  </g>
  <g id="_2275921100288">
   <path class="fil2" d="M442.97 331.63c-219.78,535.6 -43.61,885.64 -5.78,941.29 -54.46,3.07 -105.74,-35.33 -115.26,-43.14 0.07,38.71 10.18,98.86 29.5,127.14 -35.61,9.32 -155.57,-28.01 -183.89,-148.59 -28.36,2.7 -51.62,3.16 -93.29,-13.52 32.16,-25.39 49.66,-49.97 66.01,-84.62 -30.52,-3.23 -106.59,-24.78 -137.65,-64.97 146.64,-52.13 134.99,-98.09 134.99,-180.33 0,-478.01 133.8,-754.01 635.25,-780.93 492.87,-26.46 632.48,347.07 632.48,776.76 0,82.24 -11.65,128.19 134.99,180.33 -31.05,40.19 -107.13,61.73 -137.65,64.97 16.34,34.65 33.85,59.23 66.01,84.62 -41.67,16.68 -74.83,21.46 -103.19,18.76 -34.74,121.06 -138.58,152.84 -173.98,143.34 19.32,-28.28 29.43,-88.44 29.5,-127.14 -9.52,7.81 -60.8,46.21 -115.26,43.14 37.84,-55.67 214.11,-405.9 -5.97,-941.77 -7.61,-3.04 -15.41,-6.15 -23.4,-9.29 -83.16,-32.67 -186.48,-68.49 -296.99,-68.6 -118.06,-0.12 -228.75,39.65 -317.57,75.02 -6.29,2.51 -12.57,5.02 -18.85,7.51z"/>
   <path class="fil1 str1" d="M442.97 331.63c-219.78,535.6 -43.61,885.64 -5.78,941.29 -54.46,3.07 -105.74,-35.33 -115.26,-43.14 0.07,38.71 10.18,98.86 29.5,127.14 -35.61,9.32 -155.57,-28.01 -183.89,-148.59 -28.36,2.7 -51.62,3.16 -93.29,-13.52 32.16,-25.39 49.66,-49.97 66.01,-84.62 -30.52,-3.23 -106.59,-24.78 -137.65,-64.97 146.64,-52.13 134.99,-98.09 134.99,-180.33 0,-478.01 133.8,-754.01 635.25,-780.93 492.87,-26.46 632.48,347.07 632.48,776.76 0,82.24 -11.65,128.19 134.99,180.33 -31.05,40.19 -107.13,61.73 -137.65,64.97 16.34,34.65 33.85,59.23 66.01,84.62 -41.67,16.68 -74.83,21.46 -103.19,18.76 -34.74,121.06 -138.58,152.84 -173.98,143.34 19.32,-28.28 29.43,-88.44 29.5,-127.14 -9.52,7.81 -60.8,46.21 -115.26,43.14 37.84,-55.67 214.11,-405.9 -5.97,-941.77"/>
  </g>
  <g>
  </g>
  <g style="clip-path:url(#id0)">
   <g id="_2275921103312">
    <g>
     <rect class="fil3 str2" x="422.29" y="835.84" width="224.35" height="282.55"/>
     <ellipse class="fil4" cx="562.88" cy="929.94" rx="30.59" ry="33.01"/>
     <rect class="fil5" x="391.4" y="996.17" width="289.82" height="115.08"/>
    </g>
   </g>
  </g>
  <path class="fil1 str3" d="M531 860.84c49.74,0 90.06,50.34 90.06,112.44 0,62.1 -40.32,112.44 -90.06,112.44 -49.74,0 -90.06,-50.34 -90.06,-112.44 0,-62.1 40.32,-112.44 90.06,-112.44z"/>
  <g>
   <path class="fil6" d="M666.92 843.22c3.04,5.77 0.21,9.2 -10.79,2.54 -84.55,-51.21 -84.91,-55.54 -192.67,-73.41 -6.29,-1.04 -54.83,-8.23 -46.37,-9.65 78.25,-13.15 184.55,-0.85 236.7,61.12l13.13 19.41z"/>
  </g>
  <g id="_2275921106720">
   <g>
    <path class="fil7" d="M666.25 940.97l0.4 1.59 -2.04 1c-38.24,-36.08 -143.58,-59.46 -200.78,-55.36 -27.54,1.98 -52.23,7.26 -78.85,14.3l7.24 76.32 -2.01 1.05 -1.06 -1.26 2.85 -1.48 -2.9 1.42c-25.47,-30.47 -37.43,-63.88 -45.71,-101.75 72.71,-35.91 152.79,-48.32 230.43,-18.68 35.82,13.67 81.48,43.8 92.42,82.86z"/>
   </g>
   <g>
    <path class="fil7" d="M409.09 853.64c0.95,1.84 -25.62,35.22 -29.26,32.01 -17,-14.94 -27.49,-26.43 -29.41,-50.42 5.4,-6.15 32.47,-3.26 51.34,12.11l7.34 6.29z"/>
   </g>
   <g>
    <path class="fil7" d="M469.72 859.96l18.25 -9.45c-12.83,7.95 -25.05,12.98 -36.76,19.08 -9.9,-19.8 -13.22,-33.67 -8.85,-55.76 5.88,-3.89 31.58,0.93 45.45,28.49l3.32 6.5 -21.39 11.13zm1.67 -0.86l19.72 -10.18 -2.37 1.19 -17.35 8.99z"/>
   </g>
  </g>
  <g>
  </g>
  <g style="clip-path:url(#id1)">
   <g id="_2275921111760">
    <g>
     <rect class="fil8 str2" x="884.47" y="835.84" width="224.35" height="282.55"/>
     <ellipse class="fil4" cx="1025.06" cy="929.94" rx="30.59" ry="33.01"/>
     <rect class="fil5" x="853.58" y="996.17" width="289.82" height="115.08"/>
    </g>
   </g>
  </g>
  <path class="fil1 str3" d="M993.17 860.84c49.74,0 90.06,50.34 90.06,112.44 0,62.1 -40.32,112.44 -90.06,112.44 -49.74,0 -90.06,-50.34 -90.06,-112.44 0,-62.1 40.32,-112.44 90.06,-112.44z"/>
  <g>
   <path class="fil6" d="M863.08 848.72c-8.49,5.08 -7.89,-3 -1.33,-13.23 44.64,-69.59 159.86,-86.45 239.43,-73.79 18.6,2.96 -10.41,5.63 -23.25,7.79 -102.81,17.33 -115.29,16.99 -200.43,70.42l-14.42 8.81z"/>
  </g>
  <g id="_2275921112384">
   <g>
    <path class="fil7" d="M860.8 942.38l-1.07 1.26 -2.04 -1c8.25,-61.55 91.01,-100.85 151.76,-107.82 69.81,-8.02 120.64,6.63 180.32,38.82 -10.8,41.8 -23,74.96 -56.01,106.13l-2.01 -1.05 0.4 -1.6 2.85 1.48 -2.83 -1.55 14.31 -80.78c-87.49,-27.59 -179.84,-23.82 -259.68,25.24 -9.86,6.06 -18.32,12.17 -26,20.86zm325.1 -53.73l-22.87 -3.33 8.82 -21.34 14.04 24.67 -22.87 -3.33 8.82 -21.34 14.04 24.67z"/>
   </g>
   <g>
    <path class="fil7" d="M1146.86 889.86c-1.94,0.71 -31.6,-29.97 -27.95,-33.17 16.99,-14.93 29.77,-23.85 53.78,-22.65 5.37,6.12 -0.94,32.65 -18.65,49.36l-7.18 6.47z"/>
   </g>
   <g>
    <path class="fil7" d="M1038.75 851.87l33.85 17.53 -33.85 -17.57 17.11 8.86 -17.11 -8.9c10.6,-19.89 14.99,-32.99 41.73,-38.85 6.23,4.12 11.35,32.55 0.48,54.96l-2.3 4.66c-5,-2.6 -38.57,-18.15 -39.91,-20.69l0 0z"/>
   </g>
  </g>
 </g>
</svg>
